<?xml version="1.0" encoding="UTF-8"?>
<svg id="Layer_2" data-name="Layer 2" xmlns="http://www.w3.org/2000/svg" viewBox="0 0 587.23 150.65">
  <defs>
    <style>
      .cls-1 {
        fill: #f3f0e6;
      }
    </style>
  </defs>
  <g id="Layer_1" data-name="Layer 1">
    <g>
      <path class="cls-1" d="M170.25,147.54v1.43h-46.87v-1.43h.72c3.59,0,6.22-.96,8.13-2.87,3.11-2.87,4.54-8.13,4.54-16.26V10.76l-57.15,133.19h-4.78L18.17,22v110.47c.48,9.33,5.5,14.83,13.15,14.83h.72v1.43H0v-1.43h.72c7.89,0,12.91-5.98,13.15-15.78V17.93C13.39,7.89,9.56,3.11,1.91,3.11h-.72v-1.43h31.09l53.08,117.41L135.58,1.67h34.43v1.43h-.48c-3.59,0-6.46.96-8.37,2.87-3.11,3.11-4.54,8.37-4.54,16.5v105.69c0,8.13,1.44,13.39,4.54,16.26,2.15,1.91,4.78,2.87,8.37,2.87l.72.24Z"/>
      <path class="cls-1" d="M303.2,118.36c-2.63,8.85-7.89,16.5-15.78,22.72-7.41,5.98-19.85,9.56-34.19,9.56-6.7,0-14.11-.96-20.8-2.63-11.96-2.87-21.76-9.56-27.74-18.65-2.87-4.3-5.02-9.33-6.22-15.06-2.63-10.76-2.87-22.48-3.11-32.76v-.24c-.24-7.41-.24-24.15-.24-37.06v-21.52c0-12.67-3.59-18.41-11.72-18.89h-1.67v-1.43h46.87v1.43h-1.2c-1.91,0-3.83.24-5.5.96-1.2.48-2.15,1.44-3.11,2.63-.72.96-1.43,2.15-1.91,3.59-.48,1.43-.96,3.11-1.2,5.02-.24,2.15-.48,4.3-.48,6.46v65.52c0,6.93.24,12.67.96,18.41.96,8.85,2.87,15.78,5.74,20.8,2.87,5.02,6.93,9.33,12.43,12.67,5.26,3.35,11.96,5.02,19.61,5.02s19.13-1.2,27.74-6.7c7.89-5.02,13.39-11.72,16.26-19.85,2.63-7.65,2.63-20.8,2.63-37.54V24.39c0-8.85-1.67-14.59-5.02-17.93-2.39-2.39-5.74-3.35-10.04-3.35h-1.2v-1.43h36.59v1.43h-2.87c-3.11.24-5.5,1.2-7.41,3.11-3.35,3.35-5.02,9.09-5.02,18.17v55.24c0,16.74-.24,29.41-2.87,38.5l.48.24Z"/>
    </g>
    <g>
      <path class="cls-1" d="M460.02,83.93c6.93,6.7,10.52,15.06,10.52,24.39,0,5.02-.96,10.04-3.11,15.06-4.78,11-15.54,17.7-21.52,20.56-8.85,4.3-19.13,6.7-29.89,6.7-6.46,0-12.91-.72-19.13-2.39-12.43-3.35-23.19-8.13-23.43-8.13-.72-.24-1.43-.48-2.15-.48-1.91,0-3.11.72-4.06,1.44h-2.39v-36.83h1.43c5.98,20.33,15.3,33,28.46,38.98,4.54,1.91,9.57,3.35,14.59,3.83,1.67.24,3.35.24,5.02.24,12.43,0,28.22-4.54,35.15-16.98,8.13-14.83,0-29.17-11.72-36.82-5.98-4.06-12.67-6.46-18.65-8.61l-6.7-2.39c-15.3-5.26-32.52-11.24-42.08-23.67-8.85-11.48-7.89-29.89,2.15-41.85,3.35-3.83,7.41-7.41,11.72-9.8,8.13-4.78,18.17-7.17,29.89-7.17h.24c11.24,0,23.43,2.15,34.19,6.22.48.24,1.91.72,3.35.72,1.67,0,2.87-.48,3.59-1.44h2.39v33.48h-1.44c-2.15-5.98-8.85-18.65-14.59-24.87-4.3-4.78-11-8.37-18.89-9.8-3.59-.72-6.93-.96-10.04-.96-3.59,0-6.93.48-10.04,1.2-10.52,2.63-21.76,11.72-21.76,25.35,0,20.56,24.39,28.93,34.91,32.52l3.59,1.2c14.59,4.78,29.65,9.8,40.65,20.56l-.24-.24Z"/>
      <path class="cls-1" d="M483.45,148.02h.72c3.59,0,6.22-.96,8.37-2.87,3.11-3.11,4.54-8.37,4.54-16.5V22.96c0-8.13-1.43-13.39-4.54-16.5-2.15-1.91-4.78-2.87-8.13-2.87h-.72v-1.44h99v23.91h-1.43c-5.98-14.59-16.98-20.8-36.83-20.8h-27.5v62.17h21.28c16.5,0,24.63-3.59,28.93-12.67l.48-.96h1.43v32.04h-1.43l-.48-1.2c-4.3-10.04-12.43-14.11-28.93-14.11h-21.28v74.84h32.04c17.93,0,28.22-5.26,34.43-17.7,0,0,1.44-3.35,2.39-5.5h1.43v26.54h-103.54l-.24-.72Z"/>
    </g>
    <path class="cls-1" d="M322.9,58.98c0-7.19,6.13-13,13.51-12.13,4.55.54,8.43,3.76,9.9,8.09,2.78,8.14-3.3,16.08-11.37,16.08-6.71,0-12.05-5.51-12.05-12.05Z"/>
    <path class="cls-1" d="M322.9,137.44c0-7.19,6.13-13,13.51-12.13,4.55.54,8.43,3.76,9.9,8.09,2.78,8.14-3.3,16.08-11.37,16.08-6.71,0-12.05-5.51-12.05-12.05Z"/>
  </g>
</svg>